<svg xmlns="http://www.w3.org/2000/svg" width="512" height="512" viewBox="0 0 512 512" data-svgdocument="" id="_kWm6UZxQVOd95CDlSpzVj" class="fl-svgdocument" x="0" y="0" style="overflow: hidden;" xmlns:xlink="http://www.w3.org/1999/xlink"><defs id="_3m3hurCrsTcOvtkpp2rnv" transform="matrix(1.0978342442919224, 0, 0, 1.0978342442919224, -20.648238790569334, -30.903553164681185)"/><path id="_l7JXC4mfbPmU9uCZw2kUU" d="M176.742,88.385c0,1.841-1.492,3.334-3.334,3.334H3.334C1.493,91.719,0,90.225,0,88.385l0,0  c0-1.841,1.493-3.333,3.333-3.333h170.074C175.25,85.051,176.742,86.544,176.742,88.385L176.742,88.385z" stroke="none" fill="#2a4a4a" transform="matrix(0.9038916104221716, 0, 0, 0.9964844260223584, 301.9731304778859, 102.9334795968773)"/><path id="_17ULumKG_GsLYiIVusBqo" d="M176.742,88.385c0,1.841-1.492,3.334-3.334,3.334H3.334C1.493,91.719,0,90.225,0,88.385l0,0  c0-1.841,1.493-3.333,3.333-3.333h170.074C175.25,85.051,176.742,86.544,176.742,88.385L176.742,88.385z" stroke="none" fill="#2a4a4a" transform="matrix(0.9038916104221716, 0, 0, 0.9964844260223584, 49.4471568934471, 102.9334795968773)"/><path id="_a1l0XuLaDFEgBnJaJzGek" d="M176.742,88.385c0,1.841-1.492,3.334-3.334,3.334H3.334C1.493,91.719,0,90.225,0,88.385l0,0  c0-1.841,1.493-3.333,3.333-3.333h170.074C175.25,85.051,176.742,86.544,176.742,88.385L176.742,88.385z" stroke="none" fill="#2a4a4a" transform="matrix(0.726934173414768, 0, 0, 0.9964844260223584, 48.00000000000002, 233.4525156352983)"/><path id="_lupcRllOUv6OOD_7Mk8QK" d="M176.742,88.385c0,1.841-1.492,3.334-3.334,3.334H3.334C1.493,91.719,0,90.225,0,88.385l0,0  c0-1.841,1.493-3.333,3.333-3.333h170.074C175.25,85.051,176.742,86.544,176.742,88.385L176.742,88.385z" stroke="none" fill="#2a4a4a" transform="matrix(0.726934173414768, 0, 0, 0.9964844260223584, 335.52019712779213, 233.4525156352983)"/><path text="THE" text-anchor="middle" font-size="100" letter-spacing="0" side="left" offset="0.5" dx="0" dy="0" space="preserve" href="" font-family="Libre Baskerville" font-scale="contain" transform="matrix(0.2769274115562439, 0, 0, 0.2769274115562439, 255.16656494140625, 203.26893615722656)" x="0" y="0" fill="#2a4a4a" data-fl-textpath="" id="_5U4XOKv-vNlmCS2hAGYrq" d="M-45.10000000000002-77L-44.10000000000002-57.9L-48.20000000000002-57.9Q-48.500000000000014-62.2 -49.60000000000002-65.1Q-50.70000000000002-68 -52.750000000000014-69.65Q-54.80000000000001-71.3 -57.90000000000002-72Q-61.000000000000014-72.7 -65.30000000000001-72.7L-65.30000000000001-72.7Q-69.00000000000001-72.7 -71.25000000000001-72.55Q-73.50000000000001-72.4 -74.70000000000002-72Q-75.90000000000002-71.6 -76.25000000000001-71.05Q-76.60000000000002-70.5 -76.60000000000002-69.6L-76.60000000000002-69.6L-76.60000000000002-16.1Q-76.60000000000002-12.9 -76.15000000000002-10.6Q-75.70000000000002-8.3 -74.35000000000002-6.85Q-73.00000000000001-5.4 -70.45000000000002-4.65Q-67.90000000000002-3.9 -63.70000000000002-3.8L-63.70000000000002-3.8L-63.70000000000002 0L-101.50000000000001 0L-101.50000000000001-3.8Q-97.30000000000001-3.9 -94.70000000000002-4.65Q-92.10000000000002-5.4 -90.75000000000001-6.85Q-89.40000000000002-8.3 -88.95000000000002-10.6Q-88.50000000000001-12.9 -88.50000000000001-16.1L-88.50000000000001-16.1L-88.50000000000001-69.6Q-88.50000000000001-70.5 -88.85000000000002-71.05Q-89.20000000000002-71.6 -90.25000000000001-72Q-91.30000000000001-72.4 -93.20000000000002-72.55Q-95.10000000000002-72.7 -98.30000000000001-72.7L-98.30000000000001-72.7Q-102.20000000000002-72.7 -105.55000000000001-72.4Q-108.90000000000002-72.1 -111.35000000000002-70.65Q-113.80000000000001-69.2 -115.30000000000001-66.2Q-116.80000000000001-63.2 -116.90000000000002-57.9L-116.90000000000002-57.9L-120.60000000000002-57.9L-120.60000000000002-77L-45.10000000000002-77ZM 34.599999999999994-61.1L 34.599999999999994-15.9Q 34.599999999999994-12.1  35-9.75Q 35.39999999999999-7.4  36.55-6.15Q 37.69999999999999-4.9  39.849999999999994-4.4Q 42-3.9  45.5-3.8L 45.5-3.8L 45.5 0L 13.099999999999994 0L 13.099999999999994-3.8Q 16.599999999999994-3.9  18.749999999999993-4.4Q 20.89999999999999-4.9  22.099999999999994-6.1Q 23.299999999999997-7.3  23.69999999999999-9.5Q 24.099999999999994-11.7  24.099999999999994-15.2L 24.099999999999994-15.2L 24.099999999999994-36.9L-16.400000000000006-36.9L-16.400000000000006-15.9Q-16.400000000000006-12.1 -16.000000000000007-9.75Q-15.600000000000005-7.4 -14.450000000000006-6.15Q-13.300000000000004-4.9 -11.150000000000006-4.4Q-9.000000000000007-3.9 -5.500000000000007-3.8L-5.500000000000007-3.8L-5.500000000000007 0L-37.900000000000006 0L-37.900000000000006-3.8Q-34.400000000000006-3.9 -32.25000000000001-4.4Q-30.100000000000005-4.9 -28.900000000000006-6.1Q-27.700000000000006-7.3 -27.300000000000004-9.5Q-26.900000000000006-11.7 -26.900000000000006-15.2L-26.900000000000006-15.2L-26.900000000000006-61.8Q-26.900000000000006-65.3 -27.250000000000007-67.45Q-27.600000000000005-69.6 -28.650000000000006-70.85Q-29.700000000000006-72.1 -31.700000000000006-72.55Q-33.7-73 -36.900000000000006-73.2L-36.900000000000006-73.2L-36.900000000000006-77L-6.500000000000007-77L-6.500000000000007-73.2Q-9.700000000000003-73.1 -11.650000000000006-72.6Q-13.600000000000005-72.1 -14.650000000000006-70.8Q-15.700000000000006-69.5 -16.050000000000004-67.2Q-16.400000000000006-64.9 -16.400000000000006-61.1L-16.400000000000006-61.1L-16.400000000000006-41.9L 24.099999999999994-41.9L 24.099999999999994-61.8Q 24.099999999999994-65.3  23.75-67.45Q 23.39999999999999-69.6  22.349999999999994-70.85Q 21.299999999999997-72.1  19.299999999999997-72.55Q 17.299999999999997-73  14.099999999999994-73.2L 14.099999999999994-73.2L 14.099999999999994-77L 44.5-77L 44.5-73.2Q 41.3-73.1  39.349999999999994-72.6Q 37.39999999999999-72.1  36.349999999999994-70.8Q 35.3-69.5  34.94999999999999-67.2Q 34.599999999999994-64.9  34.599999999999994-61.1L 34.599999999999994-61.1ZM 76.1-71L 76.1-42.3Q 81.5-42.3  85.15-42.95Q 88.80000000000001-43.6  90.95-45Q 93.1-46.4  94.05000000000001-48.6Q 95-50.8  95-53.8L 95-53.8L 98.5-53.8L 98.5-26.5L 95-26.5Q 95-29.5  94.15-31.7Q 93.30000000000001-33.9  91.15-35.35Q 89-36.8  85.35-37.55Q 81.7-38.3  76.1-38.3L 76.1-38.3L 76.1-15.7Q 76.1-12.4  76.9-10.25Q 77.7-8.1  79.65-6.75Q 81.6-5.4  84.80000000000001-4.85Q 88-4.3  92.7-4.3L 92.7-4.3Q 98-4.3  101.7-5.05Q 105.4-5.8  107.9-7.6Q 110.4-9.4  111.9-12.35Q 113.4-15.3  114.4-19.7L 114.4-19.7L 118.19999999999999-19.7L 116.69999999999999 0L 54.6 0L 54.6-3.8Q 58.1-3.9  60.25-4.4Q 62.400000000000006-4.9  63.6-6.1Q 64.8-7.3  65.2-9.5Q 65.6-11.7  65.6-15.2L 65.6-15.2L 65.6-61.8Q 65.6-65.3  65.25-67.45Q 64.9-69.6  63.85-70.85Q 62.8-72.1  60.8-72.55Q 58.8-73  55.6-73.2L 55.6-73.2L 55.6-77L 113.4-77L 114.30000000000001-59.4L 110.80000000000001-59.4Q 110.2-63.4  108.85-65.95Q 107.5-68.5  105.15-70Q 102.80000000000001-71.5  99.2-72.1Q 95.6-72.7  90.5-72.7L 90.5-72.7L 77.8-72.7Q 76.1-72.7  76.1-71L 76.1-71Z"></path><path text="COMPANY" text-anchor="middle" font-size="100" letter-spacing="0" side="left" offset="0.5" dx="0" dy="0" space="preserve" href="" font-family="Libre Baskerville" font-scale="contain" transform="matrix(0.6975203156471252, 0, 0, 0.6975203156471252, 254.12994384765625, 286.5906066894531)" x="0" y="0" fill="#2a4a4a" data-fl-textpath="" id="_yt15yf0t55uFk5srp6g5Y" d="M-225.94999999999996-70.8L-224.14999999999995-77L-221.34999999999997-77L-220.44999999999996-54L-224.14999999999995-54Q-226.34999999999997-62.8 -232.64999999999995-67.8Q-238.94999999999996-72.8 -247.84999999999997-72.8L-247.84999999999997-72.8Q-253.94999999999996-72.8 -258.74999999999994-70.4Q-263.54999999999995-68 -266.84999999999997-63.5Q-270.15-59 -271.9-52.5Q-273.65-46 -273.65-37.8L-273.65-37.8Q-273.65-21.7 -266.94999999999993-13.05Q-260.24999999999994-4.4 -247.54999999999995-4.4L-247.54999999999995-4.4Q-228.24999999999994-4.4 -222.74999999999994-24.9L-222.74999999999994-24.9L-218.64999999999995-24.9L-218.64999999999995 0L-222.14999999999995 0L-224.44999999999996-7.9Q-234.94999999999996 1 -249.84999999999997 1L-249.84999999999997 1Q-258.34999999999997 1 -265.19999999999993-1.7Q-272.04999999999995-4.4 -276.9-9.35Q-281.74999999999994-14.3 -284.4-21.4Q-287.04999999999995-28.5 -287.04999999999995-37.2L-287.04999999999995-37.2Q-287.04999999999995-46.3 -284.24999999999994-53.8Q-281.44999999999993-61.3 -276.4-66.7Q-271.34999999999997-72.1 -264.29999999999995-75.05Q-257.24999999999994-78 -248.74999999999994-78L-248.74999999999994-78Q-242.74999999999994-78 -237.44999999999996-76.3Q-232.14999999999995-74.6 -225.94999999999996-70.8L-225.94999999999996-70.8ZM-165.54999999999995-78L-165.54999999999995-78Q-156.74999999999997-78 -149.14999999999998-74.9Q-141.54999999999995-71.8 -135.94999999999996-66.4Q-130.34999999999997-61 -127.14999999999996-53.7Q-123.94999999999996-46.4 -123.94999999999996-37.9L-123.94999999999996-37.9Q-123.94999999999996-29.8 -127.19999999999996-22.7Q-130.44999999999996-15.6 -136.04999999999995-10.35Q-141.64999999999998-5.1 -149.24999999999997-2.05Q-156.84999999999997 1 -165.54999999999995 1L-165.54999999999995 1Q-174.24999999999997 1 -181.84999999999997-2.05Q-189.44999999999996-5.1 -195.04999999999995-10.35Q-200.64999999999998-15.6 -203.89999999999998-22.7Q-207.14999999999998-29.8 -207.14999999999998-37.9L-207.14999999999998-37.9Q-207.14999999999998-46.4 -203.94999999999996-53.7Q-200.74999999999997-61 -195.14999999999998-66.4Q-189.54999999999995-71.8 -181.94999999999996-74.9Q-174.34999999999997-78 -165.54999999999995-78ZM-165.54999999999995-4.5L-165.54999999999995-4.5Q-158.94999999999996-4.5 -153.69999999999996-6.8Q-148.44999999999996-9.1 -144.69999999999996-13.4Q-140.94999999999996-17.7 -138.94999999999996-23.85Q-136.94999999999996-30 -136.94999999999996-37.6L-136.94999999999996-37.6Q-136.94999999999996-45.6 -138.94999999999996-52.05Q-140.94999999999996-58.5 -144.64999999999998-63.05Q-148.34999999999997-67.6 -153.64999999999998-70.05Q-158.94999999999996-72.5 -165.54999999999995-72.5L-165.54999999999995-72.5Q-172.14999999999998-72.5 -177.44999999999996-70.05Q-182.74999999999997-67.6 -186.44999999999996-63.05Q-190.14999999999998-58.5 -192.14999999999998-52.05Q-194.14999999999998-45.6 -194.14999999999998-37.6L-194.14999999999998-37.6Q-194.14999999999998-30 -192.14999999999998-23.85Q-190.14999999999998-17.7 -186.44999999999996-13.4Q-182.74999999999997-9.1 -177.44999999999996-6.8Q-172.14999999999998-4.5 -165.54999999999995-4.5ZM-64.94999999999996-17.9L-64.54999999999995-17.9L-38.549999999999955-77L-16.14999999999995-77L-16.14999999999995-73.2Q-19.34999999999995-73.1 -21.299999999999955-72.4Q-23.249999999999957-71.7 -24.299999999999955-70.05Q-25.34999999999995-68.4 -25.69999999999996-65.5Q-26.049999999999955-62.6 -26.049999999999955-58.1L-26.049999999999955-58.1L-26.049999999999955-18.9Q-26.049999999999955-13.9 -25.64999999999995-11Q-25.249999999999957-8.1 -24.09999999999995-6.5Q-22.94999999999996-4.9 -20.799999999999955-4.4Q-18.64999999999995-3.9 -15.149999999999949-3.8L-15.149999999999949-3.8L-15.149999999999949 0L-47.549999999999955 0L-47.549999999999955-3.8Q-44.049999999999955-3.9 -41.89999999999995-4.45Q-39.74999999999996-5 -38.549999999999955-6.5Q-37.34999999999995-8 -36.94999999999996-10.75Q-36.549999999999955-13.5 -36.549999999999955-18.2L-36.549999999999955-18.2L-36.549999999999955-64.6L-37.549999999999955-64.6L-66.74999999999996 1L-68.94999999999996 1L-97.64999999999995-64.6L-98.04999999999995-64.6L-98.04999999999995-18.9Q-98.04999999999995-13.9 -97.64999999999995-11Q-97.24999999999996-8.1 -96.09999999999995-6.5Q-94.94999999999996-4.9 -92.79999999999995-4.4Q-90.64999999999995-3.9 -87.14999999999995-3.8L-87.14999999999995-3.8L-87.14999999999995 0L-115.04999999999995 0L-115.04999999999995-3.8Q-111.54999999999995-3.9 -109.39999999999995-4.45Q-107.24999999999996-5 -106.04999999999995-6.5Q-104.84999999999995-8 -104.44999999999996-10.75Q-104.04999999999995-13.5 -104.04999999999995-18.2L-104.04999999999995-18.2L-104.04999999999995-58.8Q-104.04999999999995-63 -104.39999999999995-65.75Q-104.74999999999996-68.5 -105.79999999999995-70.1Q-106.84999999999995-71.7 -108.84999999999995-72.35Q-110.84999999999995-73 -114.04999999999995-73.2L-114.04999999999995-73.2L-114.04999999999995-77L-90.14999999999995-77L-64.94999999999996-17.9ZM 55.25000000000004-57.7L 55.25000000000004-57.7Q 55.25000000000004-52.4  53.55000000000004-48.2Q 51.850000000000044-44  48.200000000000045-41.1Q 44.55000000000005-38.2  38.700000000000045-36.6Q 32.850000000000044-35  24.450000000000045-35L 24.450000000000045-35L 15.450000000000045-35L 15.450000000000045-15.7Q 15.450000000000045-12  15.900000000000045-9.65Q 16.350000000000044-7.3  17.800000000000047-6Q 19.250000000000046-4.7  22.000000000000043-4.25Q 24.750000000000043-3.8  29.250000000000043-3.8L 29.250000000000043-3.8L 29.250000000000043 0L-6.0499999999999545 0L-6.0499999999999545-3.8Q-2.5499999999999545-3.9 -0.39999999999995417-4.4Q 1.7500000000000462-4.9  2.9500000000000455-6.1Q 4.150000000000045-7.3  4.550000000000045-9.5Q 4.9500000000000455-11.7  4.9500000000000455-15.2L 4.9500000000000455-15.2L 4.9500000000000455-61.8Q 4.9500000000000455-65.3  4.600000000000046-67.45Q 4.250000000000046-69.6  3.2000000000000455-70.85Q 2.1500000000000448-72.1  0.15000000000004476-72.55Q-1.8499999999999552-73 -5.0499999999999545-73.2L-5.0499999999999545-73.2L-5.0499999999999545-77L 26.350000000000044-77Q 40.15000000000005-77  47.700000000000045-71.9Q 55.25000000000004-66.8  55.25000000000004-57.7ZM 15.450000000000045-70.6L 15.450000000000045-40L 22.550000000000047-40Q 32.55000000000005-40  37.40000000000005-43.85Q 42.25000000000004-47.7  42.25000000000004-56.5L 42.25000000000004-56.5Q 42.25000000000004-65  38.40000000000005-68.65Q 34.55000000000005-72.3  26.350000000000044-72.3L 26.350000000000044-72.3L 17.150000000000045-72.3Q 15.450000000000045-72.3  15.450000000000045-70.6L 15.450000000000045-70.6ZM 105.25000000000004-17.1L 101.15000000000003-27.9L 74.45000000000005-27.9Q 72.75000000000004-23.8  71.55000000000004-20.65Q 70.35000000000005-17.5  69.60000000000005-15.2Q 68.85000000000005-12.9  68.55000000000004-11.3Q 68.25000000000004-9.7  68.25000000000004-8.7L 68.25000000000004-8.7Q 68.25000000000004-5.9  70.05000000000004-4.85Q 71.85000000000005-3.8  76.05000000000004-3.8L 76.05000000000004-3.8L 76.05000000000004 0L 51.75000000000004 0L 51.75000000000004-3.8Q 54.05000000000005-4.1  55.700000000000045-4.6Q 57.350000000000044-5.1  58.600000000000044-6Q 59.850000000000044-6.9  60.80000000000004-8.35Q 61.75000000000004-9.8  62.65000000000005-11.9L 62.65000000000005-11.9L 88.65000000000003-77L 92.95000000000005-77L 115.65000000000003-20.6Q 117.95000000000005-15  119.65000000000003-11.65Q 121.35000000000005-8.3  122.95000000000005-6.6Q 124.55000000000004-4.9  126.40000000000003-4.4Q 128.25000000000006-3.9  130.85000000000005-3.9L 130.85000000000005-3.9L 130.85000000000005 0L 98.25000000000004 0L 98.25000000000004-3.9Q 103.55000000000004-3.9  105.55000000000004-4.9Q 107.55000000000004-5.9  107.55000000000004-8.2L 107.55000000000004-8.2Q 107.55000000000004-9.2  107.45000000000005-10.05Q 107.35000000000005-10.9  107.10000000000005-11.9Q 106.85000000000005-12.9  106.40000000000003-14.15Q 105.95000000000005-15.4  105.25000000000004-17.1L 105.25000000000004-17.1ZM 88.15000000000003-62.4L 76.45000000000005-32.9L 99.25000000000004-32.9L 88.15000000000003-62.4ZM 204.95000000000007 1L 198.95000000000007 1L 151.45000000000007-61.6L 151.05000000000007-61.6L 151.05000000000007-18.9Q 151.05000000000007-13.9  151.40000000000006-11Q 151.75000000000006-8.1  152.80000000000007-6.5Q 153.85000000000008-4.9  155.80000000000007-4.4Q 157.75000000000006-3.9  160.95000000000007-3.8L 160.95000000000007-3.8L 160.95000000000007 0L 134.05000000000007 0L 134.05000000000007-3.8Q 137.55000000000007-3.9  139.70000000000007-4.45Q 141.85000000000008-5  143.05000000000007-6.5Q 144.25000000000006-8  144.65000000000006-10.75Q 145.05000000000007-13.5  145.05000000000007-18.2L 145.05000000000007-18.2L 145.05000000000007-58.8Q 145.05000000000007-63  144.70000000000007-65.75Q 144.35000000000008-68.5  143.30000000000007-70.1Q 142.25000000000006-71.7  140.25000000000006-72.35Q 138.25000000000006-73  135.05000000000007-73.2L 135.05000000000007-73.2L 135.05000000000007-77L 154.85000000000008-77L 198.55000000000007-18.7L 198.95000000000007-18.7L 198.95000000000007-58.1Q 198.95000000000007-63  198.60000000000008-65.95Q 198.25000000000006-68.9  197.20000000000007-70.5Q 196.15000000000006-72.1  194.20000000000007-72.6Q 192.25000000000006-73.1  189.05000000000007-73.2L 189.05000000000007-73.2L 189.05000000000007-77L 215.95000000000007-77L 215.95000000000007-73.2Q 212.45000000000007-73.1  210.30000000000007-72.55Q 208.15000000000006-72  206.95000000000007-70.5Q 205.75000000000006-69  205.35000000000008-66.2Q 204.95000000000007-63.4  204.95000000000007-58.8L 204.95000000000007-58.8L 204.95000000000007 1ZM 251.15000000000003-30.4L 231.15000000000003-64.6Q 229.65000000000003-67.2  228.35000000000002-68.85Q 227.05000000000004-70.5  225.70000000000002-71.5Q 224.35000000000002-72.5  222.85000000000002-72.85Q 221.35000000000002-73.2 219.25000000000003-73.2L 219.25000000000003-73.2L 219.25000000000003-77L 250.75000000000003-77L 250.75000000000003-73.2Q 245.75000000000003-73.2  243.70000000000002-72.45Q 241.65000000000003-71.7  241.65000000000003-69.8L 241.65000000000003-69.8Q 241.65000000000003-67.7  243.95000000000002-63.8L 243.95000000000002-63.8L 259.45000000000005-37.3L 259.85-37.3L 271.15000000000003-56.3Q 274.35-61.7  275.70000000000005-64.8Q 277.05-67.9  277.05-69.8L 277.05-69.8Q 277.05-71.7  275.6-72.45Q 274.15000000000003-73.2  270.55-73.2L 270.55-73.2L 270.55-77L 293.45000000000005-77L 293.45000000000005-73.2Q 291.35-73.2  289.70000000000005-72.6Q 288.05-72  286.25-70.2Q 284.45000000000005-68.4  282.3-65.2Q 280.15000000000003-62  277.05-56.8L 277.05-56.8L 261.65000000000003-30.8L 261.65000000000003-18.9Q 261.65000000000003-14  262-11.05Q 262.35-8.1  263.5-6.5Q 264.65000000000003-4.9  266.8-4.35Q 268.95000000000005-3.8  272.55-3.8L 272.55-3.8L 272.55 0L 240.15000000000003 0L 240.15000000000003-3.8Q 243.75000000000003-3.8  245.90000000000003-4.35Q 248.05000000000004-4.9  249.20000000000002-6.45Q 250.35000000000002-8  250.75000000000003-10.8Q 251.15000000000003-13.6  251.15000000000003-18.2L 251.15000000000003-18.2L 251.15000000000003-30.4Z"></path><path text="NAME" text-anchor="middle" font-size="100" letter-spacing="0" side="left" offset="0.5" dx="0" dy="0" space="preserve" href="" font-family="Libre Baskerville" font-scale="contain" transform="matrix(0.2769274115562439, 0, 0, 0.2769274115562439, 254.8325958251953, 329.7775573730469)" x="0" y="0" fill="#2a4a4a" data-fl-textpath="" id="_Y67yIMbGgVWvIFbFfvAJH" d="M-98.5 1L-104.5 1L-152-61.6L-152.4-61.6L-152.4-18.9Q-152.4-13.9 -152.05-11Q-151.70000000000002-8.1 -150.65-6.5Q-149.6-4.9 -147.65-4.4Q-145.70000000000002-3.9 -142.5-3.8L-142.5-3.8L-142.5 0L-169.4 0L-169.4-3.8Q-165.9-3.9 -163.75-4.45Q-161.6-5 -160.4-6.5Q-159.20000000000002-8 -158.8-10.75Q-158.4-13.5 -158.4-18.2L-158.4-18.2L-158.4-58.8Q-158.4-63 -158.75-65.75Q-159.1-68.5 -160.15-70.1Q-161.20000000000002-71.7 -163.20000000000002-72.35Q-165.20000000000002-73 -168.4-73.2L-168.4-73.2L-168.4-77L-148.6-77L-104.9-18.7L-104.5-18.7L-104.5-58.1Q-104.5-63 -104.85000000000001-65.95Q-105.2-68.9 -106.25-70.5Q-107.30000000000001-72.1 -109.25-72.6Q-111.2-73.1 -114.4-73.2L-114.4-73.2L-114.4-77L-87.5-77L-87.5-73.2Q-91-73.1 -93.15-72.55Q-95.30000000000001-72 -96.5-70.5Q-97.7-69 -98.10000000000001-66.2Q-98.5-63.4 -98.5-58.8L-98.5-58.8L-98.5 1ZM-32.00000000000001-17.1L-36.10000000000001-27.9L-62.800000000000004-27.9Q-64.5-23.8 -65.7-20.65Q-66.9-17.5 -67.65-15.2Q-68.4-12.9 -68.7-11.3Q-69-9.7 -69-8.7L-69-8.7Q-69-5.9 -67.2-4.85Q-65.4-3.8 -61.2-3.8L-61.2-3.8L-61.2 0L-85.5 0L-85.5-3.8Q-83.2-4.1 -81.55000000000001-4.6Q-79.9-5.1 -78.65-6Q-77.4-6.9 -76.45-8.35Q-75.5-9.8 -74.60000000000001-11.9L-74.60000000000001-11.9L-48.60000000000001-77L-44.300000000000004-77L-21.60000000000001-20.6Q-19.30000000000001-15 -17.60000000000001-11.65Q-15.900000000000006-8.3 -14.300000000000011-6.6Q-12.700000000000003-4.9 -10.850000000000009-4.4Q-9-3.9 -6.400000000000006-3.9L-6.400000000000006-3.9L-6.400000000000006 0L-39.00000000000001 0L-39.00000000000001-3.9Q-33.7-3.9 -31.700000000000003-4.9Q-29.700000000000003-5.9 -29.700000000000003-8.2L-29.700000000000003-8.2Q-29.700000000000003-9.2 -29.800000000000004-10.05Q-29.900000000000006-10.9 -30.150000000000006-11.9Q-30.400000000000006-12.9 -30.85000000000001-14.15Q-31.300000000000004-15.4 -32.00000000000001-17.1L-32.00000000000001-17.1ZM-49.10000000000001-62.4L-60.800000000000004-32.9L-38.00000000000001-32.9L-49.10000000000001-62.4ZM 46.9-17.9L 47.3-17.9L 73.3-77L 95.7-77L 95.7-73.2Q 92.5-73.1  90.55-72.4Q 88.6-71.7  87.55-70.05Q 86.5-68.4  86.14999999999999-65.5Q 85.8-62.6  85.8-58.1L 85.8-58.1L 85.8-18.9Q 85.8-13.9  86.2-11Q 86.6-8.1  87.75-6.5Q 88.89999999999999-4.9  91.05-4.4Q 93.2-3.9  96.7-3.8L 96.7-3.8L 96.7 0L 64.3 0L 64.3-3.8Q 67.8-3.9  69.95-4.45Q 72.1-5  73.3-6.5Q 74.5-8  74.89999999999999-10.75Q 75.3-13.5  75.3-18.2L 75.3-18.2L 75.3-64.6L 74.3-64.6L 45.099999999999994 1L 42.9 1L 14.199999999999996-64.6L 13.799999999999997-64.6L 13.799999999999997-18.9Q 13.799999999999997-13.9  14.199999999999996-11Q 14.599999999999998-8.1  15.749999999999996-6.5Q 16.9-4.9  19.049999999999997-4.4Q 21.199999999999996-3.9  24.699999999999996-3.8L 24.699999999999996-3.8L 24.699999999999996 0L-3.200000000000003 0L-3.200000000000003-3.8Q 0.29999999999999716-3.9  2.4499999999999975-4.45Q 4.599999999999998-5  5.799999999999997-6.5Q 6.9999999999999964-8  7.399999999999997-10.75Q 7.799999999999997-13.5  7.799999999999997-18.2L 7.799999999999997-18.2L 7.799999999999997-58.8Q 7.799999999999997-63  7.4499999999999975-65.75Q 7.099999999999998-68.5  6.049999999999997-70.1Q 4.9999999999999964-71.7  2.9999999999999964-72.35Q 0.9999999999999964-73 -2.200000000000003-73.2L-2.200000000000003-73.2L-2.200000000000003-77L 21.699999999999996-77L 46.9-17.9ZM 127.29999999999998-71L 127.29999999999998-42.3Q 132.7-42.3  136.34999999999997-42.95Q 140-43.6  142.14999999999998-45Q 144.29999999999998-46.4  145.25-48.6Q 146.2-50.8  146.2-53.8L 146.2-53.8L 149.7-53.8L 149.7-26.5L 146.2-26.5Q 146.2-29.5  145.34999999999997-31.7Q 144.5-33.9  142.34999999999997-35.35Q 140.2-36.8  136.54999999999998-37.55Q 132.89999999999998-38.3  127.29999999999998-38.3L 127.29999999999998-38.3L 127.29999999999998-15.7Q 127.29999999999998-12.4  128.1-10.25Q 128.89999999999998-8.1  130.85-6.75Q 132.79999999999998-5.4  136-4.85Q 139.2-4.3  143.89999999999998-4.3L 143.89999999999998-4.3Q 149.2-4.3  152.89999999999998-5.05Q 156.59999999999997-5.8  159.09999999999997-7.6Q 161.59999999999997-9.4  163.09999999999997-12.35Q 164.59999999999997-15.3  165.59999999999997-19.7L 165.59999999999997-19.7L 169.39999999999998-19.7L 167.89999999999998 0L 105.79999999999998 0L 105.79999999999998-3.8Q 109.29999999999998-3.9  111.44999999999999-4.4Q 113.59999999999998-4.9  114.79999999999998-6.1Q 115.99999999999999-7.3  116.39999999999998-9.5Q 116.79999999999998-11.7  116.79999999999998-15.2L 116.79999999999998-15.2L 116.79999999999998-61.8Q 116.79999999999998-65.3  116.44999999999999-67.45Q 116.09999999999998-69.6  115.04999999999998-70.85Q 113.99999999999999-72.1  111.99999999999999-72.55Q 109.99999999999999-73  106.79999999999998-73.2L 106.79999999999998-73.2L 106.79999999999998-77L 164.59999999999997-77L 165.5-59.4L 162-59.4Q 161.39999999999998-63.4  160.04999999999998-65.95Q 158.7-68.5  156.34999999999997-70Q 154-71.5  150.39999999999998-72.1Q 146.79999999999998-72.7  141.7-72.7L 141.7-72.7L 128.99999999999997-72.7Q 127.29999999999998-72.7  127.29999999999998-71L 127.29999999999998-71Z"></path></svg>